<svg width="24" height="25" viewBox="0 0 24 25" fill="none" xmlns="http://www.w3.org/2000/svg">
<path d="M18.769 14.1337C19.7452 14.2328 20.7123 14.4447 21.6489 14.7733C22.4591 15.0575 23.0005 15.8111 23.0005 16.6561V17.5575C23.0005 18.7391 21.9345 19.6474 20.7437 19.4803L20.4702 19.4413C20.415 19.4335 20.3595 19.4281 20.3042 19.4208C20.3784 19.1199 20.4204 18.8051 20.4204 18.4794V17.3593C20.4204 16.059 19.7871 14.8696 18.769 14.1337ZM17.5005 6.49988C19.3815 6.50013 20.9066 7.99792 20.9067 9.84558C20.9067 11.6934 19.3816 13.192 17.5005 13.1923C17.0324 13.1923 16.5862 13.0984 16.1802 12.9305C17.2208 11.9051 17.8667 10.4806 17.8667 8.90417C17.8667 8.04533 17.6741 7.23185 17.3315 6.50281C17.3873 6.50014 17.444 6.49988 17.5005 6.49988Z" fill="#A1A3B2"/>
<path d="M5.61182 14.1337C4.63569 14.2328 3.66856 14.4447 2.73193 14.7733C1.92176 15.0575 1.38037 15.8111 1.38037 16.6561V17.5575C1.38037 18.7391 2.44638 19.6474 3.63721 19.4803L3.91064 19.4413C3.96587 19.4335 4.02139 19.4281 4.07666 19.4208C4.00243 19.1199 3.96049 18.8051 3.96045 18.4794V17.3593C3.96047 16.059 4.59375 14.8696 5.61182 14.1337ZM6.88037 6.49988C4.99938 6.50013 3.4743 7.99792 3.47412 9.84558C3.47412 11.6934 4.99927 13.192 6.88037 13.1923C7.34849 13.1923 7.79468 13.0984 8.20068 12.9305C7.16006 11.9051 6.51417 10.4806 6.51416 8.90417C6.51416 8.04533 6.70671 7.23185 7.04932 6.50281C6.99352 6.50014 6.93684 6.49988 6.88037 6.49988Z" fill="#A1A3B2"/>
<path fill-rule="evenodd" clip-rule="evenodd" d="M16.3671 8.90413C16.3671 6.6098 14.5071 4.74988 12.2128 4.74988C9.91848 4.74988 8.05856 6.6098 8.05856 8.90413C8.05856 11.1985 9.91848 13.0584 12.2128 13.0584C14.5071 13.0584 16.3671 11.1985 16.3671 8.90413Z" fill="#A1A3B2"/>
<path fill-rule="evenodd" clip-rule="evenodd" d="M7.15298 15.0213C10.425 13.8528 14.0006 13.8528 17.2727 15.0213C18.2607 15.3742 18.9203 16.3101 18.9203 17.3593V18.4789C18.9203 19.9459 17.621 21.0728 16.1687 20.8653L15.8351 20.8177C13.4325 20.4744 10.9932 20.4744 8.59049 20.8177L8.25693 20.8653C6.80468 21.0728 5.50537 19.9459 5.50537 18.4789V17.3593C5.50537 16.3101 6.16492 15.3742 7.15298 15.0213Z" fill="#A1A3B2"/>
</svg>
