<svg width="89" height="100" viewBox="0 0 89 100" fill="none" xmlns="http://www.w3.org/2000/svg">
<path d="M53.512 0H16.195C12.602 0 9.67285 2.92912 9.67285 6.54169V93.4583C9.67285 97.0709 12.602 99.9805 16.2145 100H81.7291C85.3417 100 88.2513 97.0709 88.2708 93.4583L88.0755 28.9006L53.512 0Z" fill="#4EB3F2"/>
<path d="M53.5122 0L53.4146 28.2171C53.4146 28.2171 53.5122 28.9006 54.098 28.9006H88.0758L53.5122 0Z" fill="#0077CC"/>
<path d="M3.38522 48.1738H69.3099C70.7744 48.1738 71.9656 49.365 71.9656 50.8296V80.2769C71.9656 81.7415 70.7744 82.9327 69.3099 82.9327H3.38522C1.92067 82.9327 0.729492 81.7415 0.729492 80.2769V50.8296C0.729492 49.365 1.92067 48.1738 3.38522 48.1738Z" fill="#0077CC"/>
<path d="M12.1529 70.3571H7.29052L6.62659 72.6418H2.27197L7.46627 58.8164H12.1333L17.3276 72.6418H12.8363L12.1529 70.3571ZM11.2546 67.3694L9.73145 62.3899L8.22784 67.3694H11.2546Z" fill="white"/>
<path d="M27.0134 58.8164H31.2704V67.057C31.2704 67.8381 31.1337 68.6192 30.8798 69.3807C30.626 70.1033 30.2159 70.7477 29.6886 71.2944C29.2005 71.8022 28.6146 72.1927 27.9702 72.4466C27.0134 72.7785 25.998 72.9347 24.9825 72.9152C24.2405 72.9152 23.518 72.8566 22.7759 72.7785C22.0729 72.7199 21.409 72.5247 20.7841 72.2122C20.2178 71.9193 19.7296 71.5092 19.3196 71.0211C18.9095 70.5524 18.5971 70.0252 18.4018 69.4198C18.1674 68.6582 18.0308 67.8771 18.0112 67.0765V58.8555H22.2682V67.2913C22.2682 68.0529 22.483 68.6387 22.8931 69.0488C23.3032 69.4589 23.889 69.6737 24.631 69.6932C25.3731 69.6932 25.9394 69.4784 26.369 69.0683C26.779 68.6582 26.9939 68.0529 26.9939 67.2913L27.0134 58.8164Z" fill="white"/>
<path d="M34.1602 58.8164H40.5066C41.7563 58.8164 42.7718 58.9921 43.5333 59.3241C44.2754 59.6366 44.9393 60.1443 45.447 60.7887C45.9547 61.4526 46.3257 62.1947 46.5405 63.0148C46.7749 63.8935 46.892 64.7918 46.8725 65.6901C46.8725 67.1741 46.6968 68.3067 46.3648 69.1269C46.0524 69.908 45.5837 70.611 44.9588 71.1773C44.4121 71.7045 43.7481 72.0755 43.0256 72.2708C42.2055 72.5051 41.3462 72.6418 40.487 72.6418H34.1406L34.1602 58.8164ZM38.4367 61.9408V69.4979H39.4911C40.3894 69.4979 41.0143 69.4003 41.4048 69.205C41.8149 68.9707 42.1273 68.5997 42.2836 68.17C42.4984 67.6819 42.596 66.8812 42.596 65.7682C42.596 64.3036 42.3617 63.3077 41.8735 62.7609C41.4048 62.2142 40.6042 61.9603 39.4911 61.9603H38.4367V61.9408Z" fill="white"/>
<path d="M49.2939 58.8164H53.5705V72.6418H49.2939V58.8164Z" fill="white"/>
<path d="M56.1089 65.7291C56.1089 63.4639 56.7338 61.7064 58.0031 60.4567C59.2723 59.2069 61.0103 58.5625 63.2559 58.5625C65.5602 58.5625 67.3372 59.1874 68.5674 60.4176C69.7976 61.6478 70.442 63.3858 70.442 65.6119C70.442 67.2327 70.1686 68.541 69.6219 69.5955C69.0946 70.6109 68.2745 71.4506 67.2591 72.0169C66.2241 72.5832 64.9548 72.8761 63.4121 72.8761C61.85 72.8761 60.5611 72.6223 59.5457 72.1341C58.4912 71.6068 57.632 70.7867 57.0657 69.7712C56.4213 68.6972 56.1089 67.3498 56.1089 65.7291ZM60.3659 65.7681C60.3659 67.1546 60.6197 68.17 61.147 68.7754C61.6742 69.3807 62.4553 69.7322 63.2755 69.6931C64.1932 69.6931 64.8962 69.4002 65.4039 68.7949C65.9117 68.1895 66.1655 67.135 66.146 65.5728C66.146 64.2645 65.8921 63.3272 65.3649 62.7218C64.8376 62.1165 64.1347 61.8236 63.2364 61.8236C62.4358 61.7845 61.6742 62.136 61.1665 62.7414C60.6393 63.3467 60.3659 64.3426 60.3659 65.7681Z" fill="white"/>
</svg>
