<svg width="55" height="55" viewBox="0 0 55 55" fill="none" xmlns="http://www.w3.org/2000/svg">
<path d="M27.5166 44.6447C27.5166 45.6136 26.9567 46.4938 26.0806 46.9047C25.7419 47.0649 25.3789 47.1423 25.0183 47.1423C24.4473 47.1423 23.8815 46.946 23.4246 46.5671L9.77004 35.2524H2.49764C1.11847 35.2536 0 34.1345 0 32.7553V22.8044C0 21.4246 1.11847 20.3062 2.49764 20.3062H9.77063L23.4252 8.99144C24.1712 8.37309 25.2057 8.24126 26.0812 8.65507C26.9567 9.06593 27.5171 9.94675 27.5171 10.9151L27.5166 44.6447ZM37.1152 40.7419C37.0543 40.746 36.9957 40.7484 36.9354 40.7484C36.2757 40.7484 35.6396 40.4877 35.1697 40.0171L34.8357 39.6819C33.9596 38.8076 33.8567 37.4225 34.5945 36.4282C36.4649 33.9063 37.4521 30.9168 37.4521 27.7808C37.4521 24.4076 36.3313 21.2437 34.2102 18.6308C33.4027 17.6377 33.4772 16.1953 34.3822 15.2908L34.7157 14.9568C35.2146 14.4579 35.8832 14.1859 36.6068 14.2291C37.3114 14.2646 37.9694 14.5962 38.4163 15.1424C41.3585 18.7426 42.9126 23.1136 42.9126 27.7813C42.9126 32.1287 41.5382 36.2668 38.9371 39.7463C38.5026 40.3263 37.8381 40.6904 37.1152 40.7419ZM47.4415 48.4606C46.9898 48.9944 46.3366 49.3148 45.6373 49.3444C45.603 49.3455 45.5681 49.3467 45.5326 49.3467C44.8711 49.3467 44.2362 49.0854 43.7663 48.6155L43.4382 48.2874C42.5213 47.3711 42.4592 45.9056 43.2927 44.9136C47.3209 40.1229 49.5401 34.0387 49.5401 27.7808C49.5401 21.2715 47.1642 15.0053 42.8517 10.1365C41.9774 9.1481 42.0218 7.65188 42.9522 6.71785L43.2797 6.38976C43.7657 5.90147 44.397 5.63249 45.1212 5.65554C45.8087 5.67505 46.459 5.97891 46.9159 6.49321C52.1288 12.3622 55 19.9231 55 27.7808C55.0012 35.3411 52.3167 42.6856 47.4415 48.4606Z" fill="#FDFDFD"/>
</svg>
