<svg width="68" height="50" viewBox="0 0 68 50" fill="none" xmlns="http://www.w3.org/2000/svg">
<path d="M62.06 13.3892V33.53H33.53V10.3892C33.53 9.83695 33.9777 9.38923 34.53 9.38923H58.06C60.2691 9.38923 62.06 11.1801 62.06 13.3892Z" fill="#6F3CDB"/>
<path d="M5 5V33.53M5 44.5031V33.53M5 33.53H33.53M33.53 33.53H62.06V44.5031V13.3892C62.06 11.1801 60.2691 9.38923 58.06 9.38923H34.53C33.9777 9.38923 33.53 9.83695 33.53 10.3892V33.53Z" stroke="#6F3CDB" stroke-width="10" stroke-linecap="round"/>
<path d="M20.3616 9.88855C23.7215 9.88862 26.4456 12.6126 26.4456 15.9725C26.4455 19.3324 23.7215 22.0564 20.3616 22.0565C17.0016 22.0565 14.2777 19.3325 14.2776 15.9725C14.2776 12.6125 17.0016 9.88855 20.3616 9.88855Z" fill="#6F3CDB" stroke="#6F3CDB"/>
</svg>
