<svg width="26" height="32" viewBox="0 0 26 32" fill="none" xmlns="http://www.w3.org/2000/svg">
<path d="M14.8691 1C18.7351 1 21.8691 4.13401 21.8691 8V14.1614C21.8691 15.2619 22.5323 16.2287 23.2552 17.0585C24.017 17.9331 24.4784 19.0762 24.4785 20.3271C24.4785 22.7315 22.7605 24.7948 20.3789 25.125C18.0139 25.4529 15.0587 25.7832 12.7393 25.7832C10.4198 25.7832 7.4646 25.4529 5.09961 25.125C2.71806 24.7948 1 22.7315 1 20.3271C1.0001 19.0764 1.46132 17.9332 2.22291 17.0585C2.94542 16.2287 3.6084 15.262 3.6084 14.1618V8C3.6084 4.13416 6.74262 1.00025 10.6084 1H14.8691Z" fill="#6F3CDB"/>
<path d="M24.4785 20.3271H25.2285V20.3271L24.4785 20.3271ZM20.3789 25.125L20.4819 25.8679L20.3789 25.125ZM12.7393 25.7832L12.7393 26.5332H12.7393V25.7832ZM5.09961 25.125L4.9966 25.8679L5.09961 25.125ZM1 20.3271L0.25 20.3271V20.3271H1ZM3.6084 8H2.8584H3.6084ZM10.6084 1V0.25H10.6083L10.6084 1ZM23.2552 17.0585L22.6896 17.5511L23.2552 17.0585ZM14.8691 1V1.75C18.3209 1.75 21.1191 4.54822 21.1191 8H21.8691H22.6191C22.6191 3.71979 19.1493 0.25 14.8691 0.25V1ZM21.8691 8H21.1191V14.1614H21.8691H22.6191V8H21.8691ZM23.2552 17.0585L22.6896 17.5511C23.3371 18.2944 23.7284 19.2642 23.7285 20.3272L24.4785 20.3271L25.2285 20.3271C25.2284 18.8883 24.6969 17.5718 23.8207 16.5659L23.2552 17.0585ZM24.4785 20.3271H23.7285C23.7285 22.3747 22.2693 24.1057 20.2759 24.3821L20.3789 25.125L20.4819 25.8679C23.2516 25.4838 25.2285 23.0882 25.2285 20.3271H24.4785ZM20.3789 25.125L20.2759 24.3821C17.9169 24.7092 15.0043 25.0332 12.7393 25.0332V25.7832V26.5332C15.1132 26.5332 18.1109 26.1967 20.4819 25.8679L20.3789 25.125ZM12.7393 25.7832L12.7393 25.0332C10.4742 25.0332 7.56163 24.7092 5.20262 24.3821L5.09961 25.125L4.9966 25.8679C7.36757 26.1967 10.3653 26.5332 12.7393 26.5332L12.7393 25.7832ZM5.09961 25.125L5.20262 24.3821C3.20917 24.1057 1.75 22.3747 1.75 20.3271H1H0.25C0.25 23.0882 2.22695 25.4838 4.9966 25.8679L5.09961 25.125ZM1 20.3271L1.75 20.3272C1.75008 19.2643 2.14128 18.2944 2.78854 17.5511L2.22291 17.0585L1.65727 16.566C0.781354 17.572 0.250114 18.8886 0.25 20.3271L1 20.3271ZM3.6084 14.1618H4.3584V8H3.6084H2.8584V14.1618H3.6084ZM3.6084 8H4.3584C4.3584 4.54843 7.1568 1.75023 10.6084 1.75L10.6084 1L10.6083 0.25C6.32845 0.25028 2.8584 3.7199 2.8584 8H3.6084ZM10.6084 1V1.75H14.8691V1V0.25H10.6084V1ZM2.22291 17.0585L2.78854 17.5511C3.52387 16.7065 4.3584 15.557 4.3584 14.1618H3.6084H2.8584C2.8584 14.9671 2.36698 15.751 1.65727 16.566L2.22291 17.0585ZM21.8691 14.1614H21.1191C21.1191 15.5568 21.954 16.7066 22.6896 17.5511L23.2552 17.0585L23.8207 16.5659C23.1107 15.7508 22.6191 14.9669 22.6191 14.1614H21.8691Z" fill="#6F3CDB"/>
<path d="M16 29.2507C15.299 30.3051 14.1002 31 12.7392 31C11.3781 31 10.1794 30.3051 9.47832 29.2507" stroke="#6F3CDB" stroke-width="1.5" stroke-linecap="round"/>
</svg>
