<svg width="55" height="55" viewBox="0 0 55 55" fill="none" xmlns="http://www.w3.org/2000/svg">
<path d="M46.0759 0C42.9301 0 40.3799 2.5502 40.3799 5.69604V22.6918H50.1606C51.0505 22.6918 51.772 21.9704 51.772 21.0805V5.69604C51.772 2.5502 49.2218 0 46.0759 0Z" fill="#FDFDFD"/>
<path d="M19.4821 40.498C19.4821 30.7643 27.4003 22.7473 37.2644 22.7742V6.3901C37.2644 3.93905 38.1871 1.69974 39.7026 0H11.2825C6.8417 0 3.22803 3.61367 3.22803 8.05449V53.3597C3.22803 54.8092 5.00124 55.5213 6.00381 54.4736L8.06524 52.3209L10.2427 54.4994C10.8711 55.1278 11.8916 55.1278 12.5211 54.4994L14.5847 52.4369L16.6687 54.5037C17.2971 55.1268 18.3101 55.1268 18.9385 54.5037L21.0558 52.4047L23.1741 54.5037C23.8015 55.1268 24.8134 55.1268 25.4418 54.5048L25.8521 54.0987C21.8569 50.7584 19.4821 45.8193 19.4821 40.498ZM16.2632 12.998H19.4434V9.81793C19.4434 8.92805 20.1648 8.2066 21.0547 8.2066C21.9446 8.2066 22.666 8.92805 22.666 9.81793V12.998H25.8461C26.736 12.998 27.4575 13.7195 27.4575 14.6094C27.4575 15.4993 26.736 16.2207 25.8461 16.2207H22.666V19.4008C22.666 20.2907 21.9446 21.0121 21.0547 21.0121C20.1648 21.0121 19.4434 20.2907 19.4434 19.4008V16.2207H16.2632C15.3734 16.2207 14.6519 15.4993 14.6519 14.6094C14.6519 13.7195 15.3734 12.998 16.2632 12.998ZM11.3866 24.2827H22.2363C23.1262 24.2827 23.8477 25.0042 23.8477 25.894C23.8477 26.7839 23.1262 27.5054 22.2363 27.5054H11.3866C10.4967 27.5054 9.77528 26.7839 9.77528 25.894C9.77528 25.0042 10.4967 24.2827 11.3866 24.2827ZM16.7631 40.3853H11.3759C10.486 40.3853 9.76454 39.6638 9.76454 38.7739C9.76454 37.884 10.486 37.1626 11.3759 37.1626H16.7631C17.653 37.1626 18.3744 37.884 18.3744 38.7739C18.3744 39.6638 17.653 40.3853 16.7631 40.3853ZM17.8374 33.9507H11.3811C10.4913 33.9507 9.7698 33.2292 9.7698 32.3394C9.7698 31.4495 10.4913 30.728 11.3811 30.728H17.8374C18.7273 30.728 19.4487 31.4495 19.4487 32.3394C19.4487 33.2292 18.7273 33.9507 17.8374 33.9507Z" fill="#FDFDFD"/>
<path d="M37.207 25.9961C29.2107 25.9961 22.7051 32.5017 22.7051 40.498C22.7051 48.4944 29.2107 55 37.207 55C45.2034 55 51.709 48.4944 51.709 40.498C51.709 32.5017 45.2034 25.9961 37.207 25.9961ZM38.8234 46.7037V46.8569C38.8234 47.7468 38.102 48.4682 37.2121 48.4682C36.3222 48.4682 35.6008 47.7468 35.6008 46.8569V46.8296C34.879 46.6576 34.2093 46.3733 33.6783 46.0259C32.9336 45.5386 32.7249 44.54 33.212 43.7953C33.6993 43.0504 34.6979 42.8418 35.4426 43.3289C36.1021 43.7604 37.1892 43.9243 37.7235 43.6729C38.0697 43.5099 38.3376 43.1622 38.3749 42.8273C38.4547 42.1138 37.3369 41.7158 36.6695 41.4522C35.6595 41.0533 34.4025 40.5568 33.6727 39.2394C32.6326 37.3618 33.5436 34.886 35.6008 34.0393V33.9582C35.6008 33.0683 36.3222 32.3469 37.2121 32.3469C38.0932 32.3469 38.808 33.0544 38.8221 33.9321C39.4021 34.1133 39.9364 34.4034 40.3642 34.7979C41.0184 35.4013 41.0595 36.4206 40.4561 37.0748C39.8527 37.7291 38.8333 37.7701 38.1792 37.1668C37.9142 36.9222 37.0972 36.8236 36.7422 37.0619C36.5035 37.2224 36.41 37.53 36.4917 37.6776C36.832 38.2919 38.6141 38.5025 39.9628 39.5535C42.718 41.7004 41.7594 45.5775 38.8234 46.7037Z" fill="#FDFDFD"/>
</svg>
