<svg width="24" height="30" viewBox="0 0 24 30" fill="none" xmlns="http://www.w3.org/2000/svg">
<path d="M11.8338 14.4898C15.8555 14.4898 19.1159 11.2461 19.1159 7.24489C19.1159 3.24365 15.8555 0 11.8338 0C7.81204 0 4.55176 3.24365 4.55176 7.24489C4.55176 11.2461 7.81204 14.4898 11.8338 14.4898Z" fill="#FB8C5C"/>
<path d="M15.626 17.5086H8.04059C3.64102 17.5086 0 21.1312 0 25.5082C0 26.5648 0.455124 27.4705 1.36539 27.9232C2.73076 28.6779 5.76496 29.5833 11.8333 29.5833C17.9017 29.5833 20.9358 28.6779 22.3012 27.9232C23.0597 27.4705 23.6666 26.5648 23.6666 25.5082C23.6666 20.9802 20.0257 17.5086 15.626 17.5086Z" fill="#FB8C5C"/>
</svg>
