<svg width="55" height="55" viewBox="0 0 55 55" fill="none" xmlns="http://www.w3.org/2000/svg">
<g clip-path="url(#clip0_1951_3688)">
<path d="M53.2914 20.3686C51.2887 18.6848 48.2245 18.8854 46.4858 20.9586L45.4409 22.1948L52.8471 28.4091L53.8449 27.1774C55.5609 25.1364 55.3438 22.0882 53.2914 20.3686Z" fill="#FDFDFD"/>
<path d="M32.3743 37.655L31.8232 38.3073C31.3448 38.8801 31.0002 39.5646 30.8271 40.29L29.3292 46.559C29.1876 47.1522 29.3937 47.7754 29.861 48.1672C30.3158 48.5494 30.9573 48.6604 31.5369 48.4127L37.4519 45.8478C38.1363 45.5503 38.75 45.0925 39.2284 44.5244L39.7815 43.87L32.3743 37.655Z" fill="#FDFDFD"/>
<path d="M43.3614 24.6552L34.4536 35.1947L41.8604 41.4097L50.7676 30.8694L43.3614 24.6552Z" fill="#FDFDFD"/>
<path d="M40.393 7.14402L34.2719 1.32809C33.6932 0.779487 32.9813 0.456362 32.231 0.24646V9.668H41.7971C41.5972 8.71087 41.1095 7.82421 40.393 7.14402Z" fill="#FDFDFD"/>
<path d="M27.6923 39.541C27.9803 38.3356 28.5546 37.1948 29.3508 36.2412L41.8984 21.394V12.8906H30.6191C29.7285 12.8906 29.0078 12.1699 29.0078 11.2793V0H4.83789C2.17232 0 0.00390625 2.16842 0.00390625 4.83398V50.166C0.00390625 52.8316 2.17232 55 4.83789 55H37.0645C39.73 55 41.8984 52.8316 41.8984 50.166V46.3569L41.6892 46.6046C40.8977 47.5472 39.8764 48.3072 38.7387 48.8029L32.819 51.3695C31.1506 52.0899 29.2192 51.8347 27.79 50.6377C26.3784 49.4528 25.7664 47.6039 26.1943 45.8101L27.6923 39.541ZM8.06055 9.66797H24.1738C25.0645 9.66797 25.7852 10.3887 25.7852 11.2793C25.7852 12.1699 25.0645 12.8906 24.1738 12.8906H8.06055C7.16991 12.8906 6.44922 12.1699 6.44922 11.2793C6.44922 10.3887 7.16991 9.66797 8.06055 9.66797ZM8.06055 19.4434H33.8418C34.7324 19.4434 35.4531 20.1641 35.4531 21.0547C35.4531 21.9453 34.7324 22.666 33.8418 22.666H8.06055C7.16991 22.666 6.44922 21.9453 6.44922 21.0547C6.44922 20.1641 7.16991 19.4434 8.06055 19.4434ZM20.9512 42.002H8.06055C7.16991 42.002 6.44922 41.2813 6.44922 40.3906C6.44922 39.5 7.16991 38.7793 8.06055 38.7793H20.9512C21.8418 38.7793 22.5625 39.5 22.5625 40.3906C22.5625 41.2813 21.8418 42.002 20.9512 42.002ZM8.06055 32.334C7.16991 32.334 6.44922 31.6133 6.44922 30.7227C6.44922 29.832 7.16991 29.1113 8.06055 29.1113H27.3965C28.2871 29.1113 29.0078 29.832 29.0078 30.7227C29.0078 31.6133 28.2871 32.334 27.3965 32.334H8.06055Z" fill="#FDFDFD"/>
</g>
<defs>
<clipPath id="clip0_1951_3688">
<rect width="55" height="55" fill="white"/>
</clipPath>
</defs>
</svg>
