<svg width="40" height="40" viewBox="0 0 40 40" fill="none" xmlns="http://www.w3.org/2000/svg">
<path d="M10.5103 11.1514C10.5103 6.83358 14.0105 3.33331 18.3284 3.33331C22.6462 3.33331 26.1464 6.83358 26.1464 11.1514C26.1464 15.4692 22.6462 18.9695 18.3284 18.9695C14.0105 18.9695 10.5103 15.4692 10.5103 11.1514Z" fill="#FDFDFD"/>
<path d="M5.44336 30.7148C5.44336 25.4722 9.69338 21.2222 14.936 21.2222H21.7213C23.517 21.2222 25.1962 21.7207 26.6282 22.587C27.0615 22.8492 27.1023 23.4443 26.7442 23.8025L20.535 30.0118C19.5108 31.036 18.9042 32.4047 18.8335 33.8515L18.803 34.4745C18.7812 34.9183 18.415 35.2672 17.9707 35.2672H9.99569C7.48151 35.2672 5.44336 33.229 5.44336 30.7148Z" fill="#FDFDFD"/>
<path d="M28.2156 27.0452C27.8903 26.7197 27.3626 26.7197 27.0371 27.0452L22.3028 31.7796C21.7176 32.3648 21.3709 33.147 21.3304 33.9736L21.2413 35.798C21.2179 36.2736 21.5973 36.672 22.0736 36.672H23.6326C24.4951 36.672 25.3241 36.3376 25.9453 35.7393L30.9184 30.9485C31.2543 30.625 31.2593 30.0888 30.9296 29.759L28.2156 27.0452Z" fill="#FDFDFD"/>
<path d="M32.803 28.097C33.0852 28.3793 33.5428 28.3792 33.8251 28.097C34.8013 27.1207 34.8013 25.5378 33.825 24.5615L33.4406 24.177C32.4643 23.2007 30.8813 23.2008 29.905 24.1772C29.6228 24.4593 29.6228 24.9168 29.905 25.199L32.803 28.097Z" fill="#FDFDFD"/>
</svg>
