<svg width="40" height="40" viewBox="0 0 40 40" fill="none" xmlns="http://www.w3.org/2000/svg">
<g clip-path="url(#clip0_1956_4057)">
<path d="M39.5344 18.6319C38.9265 17.6517 37.8523 17.0657 36.6608 17.0657H10.1325C8.81751 17.0657 7.62153 17.807 7.08472 18.9548L0.0681152 33.6664C0.333008 34.7437 1.33917 35.5484 2.5376 35.5484H30.7618C31.9685 35.5484 33.0714 34.866 33.6103 33.7863L39.6751 21.6306C40.1539 20.6686 40.1008 19.5477 39.5344 18.6319Z" fill="#FDFDFD"/>
<path d="M5.65644 16.6919C6.19263 15.5444 7.38892 14.8029 8.70423 14.8029H33.685V11.6077C33.685 10.2905 32.5739 9.21875 31.2082 9.21875H16.6422C16.6208 9.21875 16.6061 9.21326 16.6007 9.20929L13.9935 5.56397C13.5318 4.9173 12.7692 4.53125 11.9544 4.53125H2.47742C1.11115 4.53125 0 5.60303 0 6.92017V28.551L5.65644 16.6919Z" fill="#FDFDFD"/>
</g>
<defs>
<clipPath id="clip0_1956_4057">
<rect width="40" height="40" fill="white"/>
</clipPath>
</defs>
</svg>
