<svg width="24" height="25" viewBox="0 0 24 25" fill="none" xmlns="http://www.w3.org/2000/svg">
<path d="M16.3118 9.10603V7.59571C16.3118 5.06165 14.2502 3 11.7161 3C9.18196 3 7.12036 5.06165 7.12036 7.59571V9.10603C7.12036 11.6401 9.18196 13.7017 11.7161 13.7017C14.2502 13.7017 16.3118 11.6401 16.3118 9.10603ZM11.1772 10.1696L9.5 8.74202L10.3325 7.89726L11.1772 8.74202L13.3572 6.56205L14.5 7L11.1772 10.1696Z" fill="#A1A3B2"/>
<path d="M2 23H21.4336V20.6973C21.4336 19.1411 20.4353 17.7842 18.9495 17.3211L14.5469 15.9489V14.541C13.6998 14.9839 12.7371 15.2348 11.7168 15.2348C10.6965 15.2348 9.73381 14.9839 8.8867 14.541V15.9489L4.48413 17.3211C2.99829 17.7842 2 19.141 2 20.6973V23Z" fill="#A1A3B2"/>
</svg>
