<svg width="23" height="23" viewBox="0 0 23 23" fill="none" xmlns="http://www.w3.org/2000/svg">
<g clip-path="url(#clip0_2104_4482)">
<path fill-rule="evenodd" clip-rule="evenodd" d="M11.6525 8.48574C11.6525 8.40624 11.6369 8.32752 11.6065 8.25406C11.576 8.18061 11.5315 8.11387 11.4752 8.05766C11.419 8.00144 11.3523 7.95686 11.2788 7.92645C11.2054 7.89603 11.1267 7.88039 11.0472 7.88042H9.09081V5.92348C9.08944 5.76386 9.02507 5.61125 8.91171 5.49886C8.79835 5.38648 8.64519 5.32342 8.48556 5.32342C8.32593 5.32342 8.17277 5.38648 8.05941 5.49886C7.94605 5.61125 7.88168 5.76386 7.8803 5.92348V7.88055H5.92373C5.76411 7.88193 5.6115 7.9463 5.49911 8.05966C5.38673 8.17302 5.32367 8.32618 5.32367 8.48581C5.32367 8.64543 5.38673 8.7986 5.49911 8.91195C5.6115 9.02531 5.76411 9.08969 5.92373 9.09106H7.8803V11.0475C7.87962 11.1275 7.89476 11.2067 7.92487 11.2808C7.95498 11.3548 7.99945 11.4221 8.05572 11.4789C8.112 11.5357 8.17895 11.5807 8.25273 11.6115C8.3265 11.6422 8.40563 11.658 8.48556 11.658C8.56548 11.658 8.64462 11.6422 8.71839 11.6115C8.79217 11.5807 8.85912 11.5357 8.91539 11.4789C8.97167 11.4221 9.01614 11.3548 9.04625 11.2808C9.07636 11.2067 9.0915 11.1275 9.09081 11.0475V9.09106H11.0473C11.2078 9.09098 11.3617 9.02717 11.4752 8.91366C11.5887 8.80016 11.6524 8.64624 11.6525 8.48574ZM8.48549 13.004C7.5918 13.004 6.71818 12.739 5.97511 12.2425C5.23203 11.746 4.65287 11.0403 4.31088 10.2147C3.96888 9.38899 3.87941 8.48045 4.05377 7.60394C4.22813 6.72743 4.65849 5.9223 5.29044 5.29038C5.92239 4.65846 6.72753 4.22813 7.60405 4.0538C8.48057 3.87947 9.3891 3.96899 10.2148 4.31101C11.0404 4.65304 11.7461 5.23223 12.2426 5.97532C12.739 6.71842 13.004 7.59205 13.004 8.48574C13.0027 9.68369 12.5262 10.8322 11.6791 11.6793C10.832 12.5263 9.68345 13.0028 8.48549 13.004ZM8.48549 2.75649C10.0044 2.75828 11.4606 3.36247 12.5346 4.43654C13.6086 5.5106 14.2128 6.96682 14.2145 8.48574C14.2145 11.6444 11.6442 14.2144 8.48554 14.2144C6.96672 14.2126 5.51062 13.6085 4.43664 12.5346C3.36265 11.4606 2.75848 10.0045 2.75665 8.48574C2.75665 5.32679 5.3265 2.75636 8.48554 2.75636L8.48549 2.75649ZM21.9031 21.8294C22.685 21.0449 23.0557 20.0779 22.9927 18.9715C22.9299 17.8642 22.4543 16.9461 21.5861 16.2558L17.1918 12.7616L17.0787 12.9783C16.1605 14.7303 14.7311 16.1616 12.9802 17.0819L12.7641 17.1952L16.2559 21.5861C16.9463 22.4542 17.8641 22.9298 18.9716 22.993C20.0774 23.0562 21.0475 22.6878 21.8297 21.903L21.9031 21.8294ZM2.48528 14.4859C0.90253 12.8927 0.0158576 10.7371 0.0195427 8.49135C0.0232278 6.24562 0.916969 4.09293 2.50494 2.50496C4.0929 0.916986 6.24559 0.0232362 8.49132 0.0195427C10.737 0.0158493 12.8927 0.902513 14.4858 2.48525C17.7945 5.79397 17.7945 11.1771 14.4858 14.4859C12.8944 16.0771 10.7361 16.971 8.48556 16.971C6.23506 16.971 4.07672 16.0771 2.48528 14.4859Z" fill="#FDFDFD"/>
</g>
<defs>
<clipPath id="clip0_2104_4482">
<rect width="23" height="23" fill="white"/>
</clipPath>
</defs>
</svg>
