<svg width="55" height="55" viewBox="0 0 55 55" fill="none" xmlns="http://www.w3.org/2000/svg">
<g clip-path="url(#clip0_1942_3650)">
<path d="M34.3451 22.3278C34.3451 23.2176 35.0665 23.9391 35.9564 23.9391H36.8454L36.844 31.0881L32.8965 40.7849H49.988L46.0402 31.0902V23.9391H46.9294C47.8193 23.9391 48.5408 23.2176 48.5408 22.3278C48.5408 21.4379 47.8193 20.7164 46.9294 20.7164H35.9564C35.0665 20.7164 34.3451 21.4379 34.3451 22.3278Z" fill="#FDFDFD"/>
<path d="M54.873 52.781L51.3003 44.0076H31.5847L28.013 52.7811C27.8107 53.2781 27.8689 53.8429 28.1683 54.2879C28.4677 54.733 28.9689 55 29.5053 55H53.3807C53.9171 55 54.4184 54.7331 54.7178 54.2879C55.017 53.8428 55.0753 53.2779 54.873 52.781Z" fill="#FDFDFD"/>
<path d="M33.6145 27.559C32.1254 26.7343 31.1146 25.147 31.1146 23.3276C31.1146 20.6622 33.2832 18.4937 35.9486 18.4937H41.0354V16.1465H28.996C28.1061 16.1465 27.3846 15.425 27.3846 14.5352V1H1.61133C0.721445 1 0 1.72145 0 2.61133V51.166C0 52.0559 0.721445 52.7773 1.61133 52.7773H24.9416C24.9667 52.7067 24.9916 52.636 25.0201 52.5662L33.6136 31.457L33.6145 27.559ZM23.4693 23.7388C23.4693 24.6287 22.7479 25.3502 21.858 25.3502H14.6856C13.7958 25.3502 13.0743 24.6287 13.0743 23.7388C13.0743 22.849 13.7958 22.1275 14.6856 22.1275H21.858C22.7479 22.1275 23.4693 22.849 23.4693 23.7388ZM4.8573 7.44542H18.4999C19.3898 7.44542 20.1112 8.16687 20.1112 9.05675C20.1112 9.94663 19.3898 10.6681 18.4999 10.6681H4.8573C3.96741 10.6681 3.24597 9.94663 3.24597 9.05675C3.24597 8.16687 3.96741 7.44542 4.8573 7.44542ZM4.8573 13.8906H18.4999C19.3898 13.8906 20.1112 14.6121 20.1112 15.502C20.1112 16.3918 19.3898 17.1133 18.4999 17.1133H4.8573C3.96741 17.1133 3.24597 16.3918 3.24597 15.502C3.24597 14.6121 3.96741 13.8906 4.8573 13.8906ZM9.54164 43.5998C10.1709 44.2289 10.1709 45.2492 9.54164 45.8785C9.227 46.1931 8.81461 46.3505 8.40232 46.3505C7.99004 46.3505 7.57754 46.1931 7.26301 45.8785L6.77263 45.3881L6.28225 45.8785C5.96761 46.1931 5.55521 46.3505 5.14293 46.3505C4.73064 46.3505 4.31814 46.1931 4.00361 45.8785C3.37434 45.2493 3.37434 44.229 4.00361 43.5998L4.49367 43.1094L4.00329 42.619C3.37401 41.9898 3.37401 40.9695 4.00329 40.3403C4.63246 39.7111 5.65275 39.7111 6.28203 40.3403L6.77241 40.8306L7.26279 40.3403C7.89196 39.7111 8.91226 39.7111 9.54153 40.3403C10.1708 40.9694 10.1708 41.9897 9.54153 42.619L9.05115 43.1094L9.54164 43.5998ZM10.6242 32.9479L7.73964 36.5311C7.43714 36.9068 6.9821 37.1274 6.49967 37.1319C6.49462 37.132 6.48946 37.132 6.48441 37.132C6.00757 37.132 5.55489 36.9207 5.24853 36.5546L3.62141 34.6096C3.05046 33.9271 3.1408 32.9109 3.82336 32.3398C4.50592 31.7687 5.52213 31.8592 6.09318 32.5417L6.46057 32.9809L8.1139 30.9271C8.67206 30.2341 9.68612 30.1243 10.3795 30.6824C11.0726 31.2404 11.1822 32.2547 10.6242 32.9479ZM10.6242 22.9577L7.73964 26.5408C7.43714 26.9166 6.9821 27.1371 6.49967 27.1417C6.49462 27.1418 6.48946 27.1418 6.48441 27.1418C6.00757 27.1418 5.55489 26.9305 5.24853 26.5644L3.62141 24.6194C3.05046 23.9368 3.1408 22.9206 3.82336 22.3496C4.50592 21.7785 5.52213 21.869 6.09318 22.5515L6.46057 22.9907L8.1139 20.9369C8.67206 20.2439 9.68612 20.134 10.3795 20.6922C11.0726 21.2502 11.1822 22.2645 10.6242 22.9577ZM20.713 45.346H14.6858C13.7959 45.346 13.0744 44.6246 13.0744 43.7347C13.0744 42.8448 13.7959 42.1234 14.6858 42.1234H20.713C21.6029 42.1234 22.3243 42.8448 22.3243 43.7347C22.3243 44.6246 21.6029 45.346 20.713 45.346ZM26.7401 35.3404H14.6856C13.7958 35.3404 13.0743 34.619 13.0743 33.7291C13.0743 32.8392 13.7958 32.1178 14.6856 32.1178H26.7401C27.63 32.1178 28.3514 32.8392 28.3514 33.7291C28.3514 34.619 27.63 35.3404 26.7401 35.3404Z" fill="#FDFDFD"/>
<path d="M30.6152 1.80225V11.9239H39.849L30.6152 1.80225Z" fill="#FDFDFD"/>
</g>
<defs>
<clipPath id="clip0_1942_3650">
<rect width="55" height="55" fill="white"/>
</clipPath>
</defs>
</svg>
