<svg width="66" height="48" viewBox="0 0 66 48" fill="none" xmlns="http://www.w3.org/2000/svg">
<path d="M63.4151 11.6037V33.0445H33.3488V8.60374C33.3488 8.05145 33.7965 7.60374 34.3488 7.60374H59.4151C61.6242 7.60374 63.4151 9.3946 63.4151 11.6037Z" fill="#50B7FF"/>
<path d="M3.28247 2.97815V33.0445M3.28247 44.6084V33.0445M3.28247 33.0445H33.3488M33.3488 33.0445H63.4151V44.6084V11.6037C63.4151 9.3946 61.6242 7.60374 59.4151 7.60374H34.3488C33.7965 7.60374 33.3488 8.05145 33.3488 8.60374V33.0445Z" stroke="#50B7FF" stroke-width="5" stroke-linecap="round"/>
<path d="M19.4707 8.10303C23.0265 8.10308 25.9092 10.9857 25.9092 14.5415C25.9091 18.0972 23.0264 20.9799 19.4707 20.98C15.9149 20.98 13.0323 18.0973 13.0322 14.5415C13.0322 10.9857 15.9149 8.10303 19.4707 8.10303Z" fill="#50B7FF" stroke="#50B7FF"/>
</svg>
