<svg width="55" height="55" viewBox="0 0 55 55" fill="none" xmlns="http://www.w3.org/2000/svg">
<path d="M37.8125 42.5391C37.8125 43.2506 37.235 43.8281 36.5234 43.8281H18.4766C17.765 43.8281 17.1875 43.2506 17.1875 42.5391C17.1875 41.8275 17.765 41.25 18.4766 41.25H36.5234C37.235 41.25 37.8125 41.8275 37.8125 42.5391Z" fill="#FDFDFD"/>
<path d="M51.5625 1.71875V4.29687H45.0313L43.3933 5.23531C42.8158 4.57875 42.1318 3.97203 41.3721 3.42375L44.0464 1.89063C44.2407 1.77719 44.4624 1.71875 44.6875 1.71875H51.5625Z" fill="#FDFDFD"/>
<path d="M26.3433 16.0308L28.0621 14.312C28.5656 13.8084 29.3821 13.8084 29.8856 14.312C30.3892 14.8156 30.3892 15.632 29.8856 16.1356L28.1669 17.8544C27.916 18.1053 27.586 18.2325 27.256 18.2325C26.926 18.2325 26.596 18.107 26.345 17.8544C25.8397 17.3508 25.8397 16.5344 26.3433 16.0308Z" fill="#FDFDFD"/>
<path d="M22.3438 10.3125C22.3438 9.60094 22.9212 9.02344 23.6328 9.02344H26.2109C26.9225 9.02344 27.5 9.60094 27.5 10.3125C27.5 11.0241 26.9225 11.6016 26.2109 11.6016H23.6328C22.9212 11.6016 22.3438 11.0241 22.3438 10.3125Z" fill="#FDFDFD"/>
<path d="M34.375 15.4688C35.0866 15.4688 35.6641 16.0462 35.6641 16.7578V19.3359C35.6641 20.0475 35.0866 20.625 34.375 20.625C33.6634 20.625 33.0859 20.0475 33.0859 19.3359V16.7578C33.0859 16.0462 33.6634 15.4688 34.375 15.4688Z" fill="#FDFDFD"/>
<path d="M15.4688 48.125C15.4688 50.0242 13.9305 51.5625 12.0312 51.5625C10.132 51.5625 8.59375 50.0242 8.59375 48.125C8.59375 46.2258 10.132 44.6875 12.0312 44.6875C13.9305 44.6875 15.4688 46.2258 15.4688 48.125Z" fill="#FDFDFD"/>
<path d="M46.4062 48.125C46.4062 50.0242 44.868 51.5625 42.9688 51.5625C41.0695 51.5625 39.5312 50.0242 39.5312 48.125C39.5312 46.2258 41.0695 44.6875 42.9688 44.6875C44.868 44.6875 46.4062 46.2258 46.4062 48.125Z" fill="#FDFDFD"/>
<path d="M51.5625 24.0625V36.0938C51.5625 37.0442 50.7942 37.8125 49.8438 37.8125H44.6875V42.3895C44.1392 42.2245 43.5703 42.1094 42.9688 42.1094C42.3672 42.1094 41.7983 42.2245 41.25 42.3895V37.8125H13.75V42.3895C13.2017 42.2245 12.6328 42.1094 12.0312 42.1094C11.4297 42.1094 10.8608 42.2245 10.3125 42.3895V37.8125H5.15625C4.20578 37.8125 3.4375 37.0442 3.4375 36.0938V24.0625C3.4375 23.112 4.20578 22.3438 5.15625 22.3438C6.10672 22.3438 6.875 23.112 6.875 24.0625V32.6563H20.625V30.9375C20.625 30.4631 21.01 30.0781 21.4844 30.0781H48.125V24.0625C48.125 23.112 48.8933 22.3438 49.8438 22.3438C50.7942 22.3438 51.5625 23.112 51.5625 24.0625Z" fill="#FDFDFD"/>
<path d="M15.4688 30.0781H9.45312V25.7812H12.0312C13.9305 25.7812 15.4688 27.3195 15.4688 29.2188V30.0781Z" fill="#FDFDFD"/>
<path d="M33.6254 12.4919C37.1678 14.3567 41.145 14.123 42.5079 11.9694C43.8709 9.81579 42.1058 6.56048 38.5617 4.69563C35.0176 2.83079 31.0422 3.06454 29.6792 5.21813C28.3162 7.37173 30.0814 10.627 33.6254 12.4919ZM38.242 9.02345C38.9536 9.02345 39.5311 9.60095 39.5311 10.3125C39.5311 11.0241 38.9536 11.6016 38.242 11.6016C37.5304 11.6016 36.9529 11.0241 36.9529 10.3125C36.9529 9.60095 37.5304 9.02345 38.242 9.02345ZM33.9451 5.58595C34.6567 5.58595 35.2342 6.16345 35.2342 6.87501C35.2342 7.58657 34.6567 8.16407 33.9451 8.16407C33.2336 8.16407 32.6561 7.58657 32.6561 6.87501C32.6561 6.16345 33.2336 5.58595 33.9451 5.58595Z" fill="#FDFDFD"/>
</svg>
