<svg width="65" height="65" viewBox="0 0 65 65" fill="none" xmlns="http://www.w3.org/2000/svg">
<path d="M6.54297 6.5H58.4572V11.3932H6.54297V6.5Z" fill="#282D30"/>
<path d="M32.5 57.9501C32.1552 57.9501 31.8245 57.8131 31.5807 57.5693C31.3369 57.3255 31.2 56.9949 31.2 56.6501V29.9598C31.2 29.615 31.3369 29.2843 31.5807 29.0406C31.8245 28.7968 32.1552 28.6598 32.5 28.6598C32.8447 28.6598 33.1754 28.7968 33.4192 29.0406C33.663 29.2843 33.8 29.615 33.8 29.9598V56.6501C33.8 56.9949 33.663 57.3255 33.4192 57.5693C33.1754 57.8131 32.8447 57.9501 32.5 57.9501Z" fill="#282D30"/>
<path d="M8.94653 12.6932V58.5H56.0533V12.6932H8.94653ZM26.6122 19.6794H30.4778V15.8139H34.5221V19.6794H38.3876V23.725H34.5221V27.5906H30.4778V23.725H26.6122V19.6794ZM22.3079 55.9V30.7099H42.6919V55.9H22.3079Z" fill="#282D30"/>
</svg>
