<svg width="65" height="65" viewBox="0 0 65 65" fill="none" xmlns="http://www.w3.org/2000/svg">
<path d="M6.54297 6.5H58.4572V11.3932H6.54297V6.5Z" fill="#693FC5"/>
<path d="M32.5002 57.9501C32.1554 57.9501 31.8248 57.8131 31.581 57.5693C31.3372 57.3255 31.2002 56.9949 31.2002 56.6501V29.9598C31.2002 29.615 31.3372 29.2843 31.581 29.0406C31.8248 28.7968 32.1554 28.6598 32.5002 28.6598C32.845 28.6598 33.1756 28.7968 33.4194 29.0406C33.6632 29.2843 33.8002 29.615 33.8002 29.9598V56.6501C33.8002 56.9949 33.6632 57.3255 33.4194 57.5693C33.1756 57.8131 32.845 57.9501 32.5002 57.9501Z" fill="#693FC5"/>
<path d="M8.94678 12.6932V58.5H56.0536V12.6932H8.94678ZM26.6125 19.6794H30.478V15.8139H34.5223V19.6794H38.3879V23.725H34.5223V27.5906H30.478V23.725H26.6125V19.6794ZM22.3082 55.9V30.7099H42.6922V55.9H22.3082Z" fill="#693FC5"/>
</svg>
