<svg width="55" height="55" viewBox="0 0 55 55" fill="none" xmlns="http://www.w3.org/2000/svg">
<path d="M35.4492 16.1133C33.3761 16.1133 31.6895 14.4267 31.6895 12.3535V0H12.4609C9.20315 0 6.55273 2.65042 6.55273 5.9082V49.0918C6.55273 52.3496 9.20315 55 12.4609 55H42.5391C45.7968 55 48.4473 52.3496 48.4473 49.0918V16.1133H35.4492ZM15.3613 38.6719H23.173C24.0629 38.6719 24.7844 39.3933 24.7844 40.2832C24.7844 41.1731 24.0629 41.8945 23.173 41.8945H15.3613C14.4714 41.8945 13.75 41.1731 13.75 40.2832C13.75 39.3933 14.4714 38.6719 15.3613 38.6719ZM13.75 31.6895C13.75 30.7996 14.4714 30.0781 15.3613 30.0781H38.9941C39.884 30.0781 40.6055 30.7996 40.6055 31.6895C40.6055 32.5793 39.884 33.3008 38.9941 33.3008H15.3613C14.4714 33.3008 13.75 32.5793 13.75 31.6895ZM38.9941 21.4844C39.884 21.4844 40.6055 22.2058 40.6055 23.0957C40.6055 23.9856 39.884 24.707 38.9941 24.707H15.3613C14.4714 24.707 13.75 23.9856 13.75 23.0957C13.75 22.2058 14.4714 21.4844 15.3613 21.4844H38.9941Z" fill="#FDFDFD"/>
<path d="M34.9121 12.3535C34.9121 12.6496 35.1531 12.8906 35.4492 12.8906H47.729C47.4343 12.3464 47.0551 11.8465 46.5995 11.4155L36.2416 1.61621C35.8396 1.23594 35.3919 0.918721 34.9122 0.668213V12.3535H34.9121Z" fill="#FDFDFD"/>
</svg>
