<svg width="65" height="65" viewBox="0 0 65 65" fill="none" xmlns="http://www.w3.org/2000/svg">
<path d="M32.4998 31.9472C39.8635 31.9472 45.8332 26.0082 45.8332 18.6819C45.8332 11.3557 39.8635 5.41663 32.4998 5.41663C25.1361 5.41663 19.1665 11.3557 19.1665 18.6819C19.1665 26.0082 25.1361 31.9472 32.4998 31.9472Z" fill="#6F3CDB"/>
<path d="M39.4444 37.4746H25.5555C17.4999 37.4746 10.8333 44.1076 10.8333 52.1218C10.8333 54.0564 11.6666 55.7147 13.3333 56.5437C15.8332 57.9255 21.3888 59.5833 32.4999 59.5833C43.6111 59.5833 49.1665 57.9255 51.6665 56.5437C53.0554 55.7147 54.1666 54.0564 54.1666 52.1218C54.1666 43.8311 47.5 37.4746 39.4444 37.4746Z" fill="#6F3CDB"/>
</svg>
