<svg width="161" height="145" viewBox="0 0 161 145" fill="none" xmlns="http://www.w3.org/2000/svg">
<path fill-rule="evenodd" clip-rule="evenodd" d="M41.2556 0H95.0832L140.704 42.8261V126.123C140.704 136.558 131.33 145 119.784 145H41.2556C29.6694 145 20.2959 136.558 20.2959 126.123V18.8767C20.2957 8.442 29.6692 0 41.2556 0Z" fill="#E5252A"/>
<path opacity="0.302" fill-rule="evenodd" clip-rule="evenodd" d="M95.043 0V42.5H140.704L95.043 0Z" fill="white"/>
<path d="M43.5889 108.188V81.7029H56.1004C59.1981 81.7029 61.6522 82.4637 63.5028 84.0217C65.3533 85.5434 66.2787 87.6087 66.2787 90.1812C66.2787 92.7536 65.3533 94.8189 63.5028 96.3406C61.6522 97.8986 59.1981 98.6594 56.1004 98.6594H51.1119V108.188H43.5889ZM51.1119 92.8987H55.2556C56.3819 92.8987 57.267 92.6812 57.8706 92.1741C58.4739 91.7031 58.796 91.0508 58.796 90.1813C58.796 89.3118 58.4741 88.6596 57.8706 88.1886C57.2672 87.6813 56.3821 87.464 55.2556 87.464H51.1119V92.8987ZM69.3762 108.188V81.7029H79.7957C81.8475 81.7029 83.7785 81.9564 85.5888 82.5C87.3991 83.0434 89.0486 83.8044 90.4968 84.8551C91.9452 85.8696 93.1118 87.2464 93.9566 88.9855C94.7612 90.7247 95.2038 92.7175 95.2038 94.9638C95.2038 97.174 94.7614 99.1667 93.9566 100.906C93.1118 102.645 91.9452 104.022 90.4968 105.036C89.0484 106.087 87.3991 106.848 85.5888 107.391C83.7785 107.935 81.8475 108.188 79.7957 108.188H69.3762ZM76.7383 102.428H78.9106C80.0773 102.428 81.1635 102.319 82.1693 102.065C83.1347 101.812 84.0601 101.413 84.9452 100.87C85.79 100.326 86.4739 99.5652 86.9566 98.5508C87.4393 97.5364 87.6808 96.3406 87.6808 94.9638C87.6808 93.5507 87.4393 92.3551 86.9566 91.3407C86.4739 90.3263 85.79 89.5654 84.9452 89.0218C84.0601 88.4784 83.1349 88.0798 82.1693 87.8262C81.1635 87.5726 80.0773 87.4638 78.9106 87.4638H76.7383V102.428ZM98.9854 108.188V81.7029H119.905V87.4638H106.508V91.7029H117.21V97.4275H106.508V108.188H98.9854Z" fill="white"/>
</svg>
