<svg width="60" height="60" viewBox="0 0 60 60" fill="none" xmlns="http://www.w3.org/2000/svg">
<path d="M50 5H10C7.23875 5 5 7.23875 5 10V50C5 52.7612 7.23875 55 10 55H50C52.7612 55 55 52.7612 55 50V10C55 7.23875 52.7612 5 50 5ZM36.2488 21.25C37.9925 21.2463 41.25 20.6925 41.25 19.375C41.25 17.5525 39.0062 17.5 38.75 17.5C38.06 17.5 37.5 16.94 37.5 16.25C37.5 15.56 38.06 15 38.75 15C40.4787 15 43.75 15.9137 43.75 19.375C43.75 23.6275 37.0175 23.75 36.25 23.75C35.56 23.75 35.0012 23.1912 35 22.5012C34.9988 21.8112 35.5588 21.2512 36.2488 21.25ZM36.2488 27.5C38.48 27.4963 41.9875 26.8237 42.4313 25.3925C42.635 24.7325 43.3337 24.3625 43.995 24.5688C44.6537 24.7725 45.0238 25.4725 44.8187 26.1325C43.655 29.8913 37.005 30 36.25 30C35.56 30 35.0012 29.4412 35 28.7512C35 28.0612 35.5588 27.5012 36.2488 27.5ZM36.2488 33.75C39.2412 33.7475 43.5088 32.9287 43.7388 31.4025C43.8413 30.7188 44.485 30.2463 45.16 30.3525C45.8425 30.455 46.3125 31.0913 46.21 31.7738C45.57 36.035 37.8 36.2512 36.2488 36.2512C35.5588 36.2512 34.9988 35.6925 34.9988 35.0012C34.9988 34.3112 35.5575 33.7512 36.2475 33.7512L36.2488 33.75ZM8.75 10C8.75 9.31 9.31 8.75 10 8.75H13.75C14.44 8.75 15 9.31 15 10C15 10.69 14.44 11.25 13.75 11.25H11.25V13.75C11.25 14.44 10.69 15 10 15C9.31 15 8.75 14.44 8.75 13.75V10ZM13.75 51.25H10C9.31 51.25 8.75 50.69 8.75 50V46.25C8.75 45.56 9.31 45 10 45C10.69 45 11.25 45.56 11.25 46.25V48.75H13.75C14.44 48.75 15 49.31 15 50C15 50.69 14.44 51.25 13.75 51.25ZM23.725 42.5C23.1187 42.5 17.7463 42.4238 15.7413 39.7812C15.325 39.2313 15.4312 38.4475 15.9812 38.03C16.5312 37.6138 17.315 37.72 17.7325 38.27C18.6838 39.5238 21.9125 39.9975 23.725 40C24.415 40 24.9738 40.5612 24.9738 41.2513C24.9738 41.9412 24.415 42.5 23.725 42.5ZM23.725 36.25C22.1737 36.25 14.4037 36.0337 13.7638 31.7725C13.6612 31.09 14.1312 30.4538 14.8137 30.3512C15.49 30.245 16.1337 30.7175 16.235 31.4013C16.465 32.9275 20.7325 33.7463 23.725 33.7488C24.415 33.7488 24.975 34.31 24.9738 34.9988C24.9738 35.6888 24.415 36.2488 23.7238 36.2488L23.725 36.25ZM23.725 30C22.97 30 16.32 29.8913 15.1562 26.1325C14.9513 25.4725 15.3213 24.7725 15.98 24.5688C16.6375 24.3625 17.34 24.7325 17.5437 25.3925C17.9887 26.83 21.495 27.5 23.725 27.5C24.415 27.5 24.975 28.06 24.975 28.75C24.975 29.44 24.415 30 23.725 30ZM23.725 23.75C22.9575 23.75 16.225 23.6275 16.225 19.375C16.225 15.9137 19.4962 15 21.225 15C21.915 15 22.475 15.56 22.475 16.25C22.475 16.94 21.915 17.5 21.225 17.5C20.8125 17.5037 18.725 17.6163 18.725 19.375C18.725 20.7 21.9812 21.25 23.725 21.25C24.415 21.25 24.975 21.81 24.975 22.5C24.975 23.19 24.415 23.75 23.725 23.75ZM31.25 46.25H28.75C28.06 46.25 27.5 45.69 27.5 45C27.5 44.31 28.06 43.75 28.75 43.75H31.25C31.94 43.75 32.5 44.31 32.5 45C32.5 45.69 31.94 46.25 31.25 46.25ZM29.375 23.75H30.625C31.315 23.75 31.875 24.31 31.875 25C31.875 25.69 31.315 26.25 30.625 26.25H29.375C28.685 26.25 28.125 25.69 28.125 25C28.125 24.31 28.685 23.75 29.375 23.75ZM28.125 20C28.125 19.31 28.685 18.75 29.375 18.75H30.625C31.315 18.75 31.875 19.31 31.875 20C31.875 20.69 31.315 21.25 30.625 21.25H29.375C28.685 21.25 28.125 20.69 28.125 20ZM29.375 28.75H30.625C31.315 28.75 31.875 29.31 31.875 30C31.875 30.69 31.315 31.25 30.625 31.25H29.375C28.685 31.25 28.125 30.69 28.125 30C28.125 29.31 28.685 28.75 29.375 28.75ZM29.375 33.75H30.625C31.315 33.75 31.875 34.31 31.875 35C31.875 35.69 31.315 36.25 30.625 36.25H29.375C28.685 36.25 28.125 35.69 28.125 35C28.125 34.31 28.685 33.75 29.375 33.75ZM29.375 38.75H30.625C31.315 38.75 31.875 39.31 31.875 40C31.875 40.69 31.315 41.25 30.625 41.25H29.375C28.685 41.25 28.125 40.69 28.125 40C28.125 39.31 28.685 38.75 29.375 38.75ZM31.25 16.25H28.75C28.06 16.25 27.5 15.69 27.5 15C27.5 14.31 28.06 13.75 28.75 13.75H31.25C31.94 13.75 32.5 14.31 32.5 15C32.5 15.69 31.94 16.25 31.25 16.25ZM44.2337 39.78C42.2288 42.4237 36.8563 42.5 36.25 42.5C35.56 42.5 35.0012 41.9412 35 41.2513C35 40.5612 35.5588 40.0013 36.2488 40C38.0613 39.9975 41.29 39.525 42.2412 38.27C42.6587 37.72 43.4425 37.6113 43.9925 38.0288C44.5425 38.4463 44.65 39.23 44.2337 39.78ZM51.25 50C51.25 50.69 50.69 51.25 50 51.25H46.25C45.56 51.25 45 50.69 45 50C45 49.31 45.56 48.75 46.25 48.75H48.75V46.25C48.75 45.56 49.31 45 50 45C50.69 45 51.25 45.56 51.25 46.25V50ZM51.25 13.75C51.25 14.44 50.69 15 50 15C49.31 15 48.75 14.44 48.75 13.75V11.25H46.25C45.56 11.25 45 10.69 45 10C45 9.31 45.56 8.75 46.25 8.75H50C50.69 8.75 51.25 9.31 51.25 10V13.75Z" fill="#FDFDFD"/>
</svg>
