<svg width="60" height="60" viewBox="0 0 60 60" fill="none" xmlns="http://www.w3.org/2000/svg">
<path fill-rule="evenodd" clip-rule="evenodd" d="M55.0787 35.2783C53.195 34.1932 52.0252 32.1716 52.0252 30.0001C52.0252 27.8297 53.1949 25.8081 55.0732 24.724C57.0009 23.6157 57.8027 21.313 56.9789 19.2491C55.9464 16.642 54.5405 14.207 52.8106 12.0106C51.4321 10.262 49.0376 9.80399 47.11 10.9194C45.2318 12.0106 42.8922 12.0139 41.0085 10.9276C39.1302 9.84126 37.9659 7.81638 37.9715 5.64102C37.9715 3.41563 36.3788 1.56876 34.1766 1.25024C31.4086 0.849344 28.5968 0.85157 25.8178 1.25845C23.621 1.57919 22.0284 3.42501 22.0338 5.64595C22.0338 7.8186 20.8695 9.84231 18.9913 10.9276C17.1075 12.0127 14.7735 12.0105 12.8898 10.9204C10.9622 9.80505 8.5677 10.2652 7.18923 12.0139C6.33247 13.1035 5.54157 14.2684 4.84419 15.4782C4.14669 16.6859 3.53708 17.9518 3.02087 19.2385C2.19153 21.3057 2.99345 23.6117 4.92106 24.7228C6.80485 25.8069 7.97462 27.8295 7.97462 30C7.97462 32.1704 6.80485 34.1914 4.92657 35.2772C2.99895 36.3855 2.19716 38.6871 3.02087 40.7504C4.05341 43.3591 5.45931 45.7943 7.18923 47.9893C8.5677 49.738 10.9622 50.1959 12.8898 49.0806C14.7681 47.9893 17.1076 47.9871 18.9913 49.0724C20.8695 50.1587 22.0338 52.1836 22.0338 54.3589C22.0283 56.5837 23.6264 58.4306 25.8232 58.7498C27.2017 58.9492 28.5857 59.0485 29.9695 59.0485C31.3756 59.0485 32.7815 58.9463 34.1818 58.7415C36.3786 58.4202 37.9712 56.576 37.9712 54.355C37.9657 52.1813 39.13 50.1575 41.0082 49.0724C42.8919 47.9872 45.2261 47.9894 47.1097 49.0795C49.0374 50.1949 51.4318 49.7358 52.8103 47.986C53.6671 46.8958 54.458 45.731 55.1554 44.5228C55.8474 43.3152 56.468 42.0492 56.9787 40.7614C57.8083 38.6942 57.0065 36.3876 55.0787 35.2783ZM37.4716 34.315C36.3238 36.3109 34.462 37.7393 32.2324 38.3358C30.0082 38.9321 27.6796 38.6263 25.686 37.4729C21.5671 35.0938 20.1502 29.8067 22.5281 25.685C24.1208 22.9203 27.0315 21.3727 30.0136 21.3727C31.48 21.3727 32.9574 21.744 34.3138 22.5272C38.4327 24.9057 39.8496 30.1944 37.4716 34.315Z" fill="#282D30"/>
</svg>
