<svg width="27" height="21" viewBox="0 0 27 21" fill="none" xmlns="http://www.w3.org/2000/svg">
<path d="M10.1518 18.9813C9.85007 16.7579 10.4336 14.5071 11.774 12.7239L19.624 2.2815C20.4416 1.19395 21.9781 0.98541 23.056 1.81571C24.1338 2.646 24.3448 4.20075 23.5273 5.28823L15.6772 15.7307C14.3368 17.5138 12.3493 18.6831 10.1518 18.9813Z" fill="#FDFDFD" stroke="#A1A3B2" stroke-width="2.5" stroke-miterlimit="10" stroke-linecap="round" stroke-linejoin="round"/>
<path d="M20.9853 8.66963L17.082 5.66284" stroke="#A1A3B2" stroke-width="2.5" stroke-miterlimit="10" stroke-linecap="round" stroke-linejoin="round"/>
<path d="M1.5 19.0001C1.5 17.6315 2.59647 16.5221 3.94899 16.5221C5.3015 16.5221 6.39797 17.6315 6.39797 19.0001H9.68733" fill="#F6EEFC"/>
<path d="M1.5 19.0001C1.5 17.6315 2.59647 16.5221 3.94899 16.5221C5.3015 16.5221 6.39797 17.6315 6.39797 19.0001H9.68733" stroke="#A1A3B2" stroke-width="2.5" stroke-miterlimit="10" stroke-linecap="round" stroke-linejoin="round"/>
</svg>
