<svg width="42" height="31" viewBox="0 0 42 31" fill="none" xmlns="http://www.w3.org/2000/svg">
<path d="M39.1111 9.77778V21.0556H21.0556V6.77778C21.0556 6.22549 21.5033 5.77778 22.0556 5.77778H35.1111C37.3202 5.77778 39.1111 7.56864 39.1111 9.77778Z" fill="#FB8C5C"/>
<path d="M3 3V21.0556M3 28V21.0556M3 21.0556H21.0556M21.0556 21.0556H39.1111V28V9.77778C39.1111 7.56864 37.3202 5.77778 35.1111 5.77778H22.0556C21.5033 5.77778 21.0556 6.22549 21.0556 6.77778V21.0556Z" stroke="#FB8C5C" stroke-width="5" stroke-linecap="round"/>
<path d="M12.7217 6.27734C14.7466 6.27752 16.3877 7.9194 16.3877 9.94434C16.3875 11.9691 14.7465 13.6102 12.7217 13.6104C10.6967 13.6104 9.05486 11.9692 9.05469 9.94434C9.05469 7.91929 10.6966 6.27734 12.7217 6.27734Z" fill="#FB8C5C" stroke="#FB8C5C"/>
</svg>
