<svg width="44" height="44" viewBox="0 0 44 44" fill="none" xmlns="http://www.w3.org/2000/svg">
<g clip-path="url(#clip0_1909_4045)">
<path d="M9.16667 20.35L12.8333 16.6833L22.9167 26.7667L29.3333 20.35L34.8333 25.85V9.16667H9.16667V20.35ZM7.33333 5.5H36.6667C37.1529 5.5 37.6192 5.69315 37.963 6.03697C38.3068 6.38079 38.5 6.8471 38.5 7.33333V36.6667C38.5 37.1529 38.3068 37.6192 37.963 37.963C37.6192 38.3068 37.1529 38.5 36.6667 38.5H7.33333C6.8471 38.5 6.38079 38.3068 6.03697 37.963C5.69315 37.6192 5.5 37.1529 5.5 36.6667V7.33333C5.5 6.8471 5.69315 6.38079 6.03697 6.03697C6.38079 5.69315 6.8471 5.5 7.33333 5.5ZM28.4167 18.3333C27.6873 18.3333 26.9878 18.0436 26.4721 17.5279C25.9564 17.0122 25.6667 16.3127 25.6667 15.5833C25.6667 14.854 25.9564 14.1545 26.4721 13.6388C26.9878 13.1231 27.6873 12.8333 28.4167 12.8333C29.146 12.8333 29.8455 13.1231 30.3612 13.6388C30.8769 14.1545 31.1667 14.854 31.1667 15.5833C31.1667 16.3127 30.8769 17.0122 30.3612 17.5279C29.8455 18.0436 29.146 18.3333 28.4167 18.3333Z" fill="#50B7FF"/>
</g>
<defs>
<clipPath id="clip0_1909_4045">
<rect width="44" height="44" fill="white"/>
</clipPath>
</defs>
</svg>
