<svg width="89" height="100" viewBox="0 0 89 100" fill="none" xmlns="http://www.w3.org/2000/svg">
<path d="M53.5137 -0.00976562H16.1895C12.5957 -0.00976562 9.66602 2.91992 9.66602 6.5332V93.4668C9.66602 97.0801 12.5957 99.9902 16.209 100.01H81.7363C85.3496 100.01 88.2598 97.0801 88.2793 93.4668L88.084 28.8965L53.5137 -0.00976562Z" fill="#4EB3F2"/>
<path d="M53.5137 -0.00976562L53.416 28.2129C53.416 28.2129 53.5137 28.8965 54.0996 28.8965H88.084L53.5137 -0.00976562Z" fill="#0088FF"/>
<path d="M3.37695 48.1738H69.3145C70.7793 48.1738 71.9707 49.3652 71.9707 50.8301V80.2832C71.9707 81.748 70.7793 82.9395 69.3145 82.9395H3.37695C1.91211 82.9395 0.720703 81.748 0.720703 80.2832V50.8301C0.720703 49.3652 1.91211 48.1738 3.37695 48.1738Z" fill="#0077CC"/>
<path d="M2.26367 58.6621H6.83398L10.0176 68.8379L13.1621 58.6621H17.5957L12.3418 72.8027H7.5957L2.26367 58.6621Z" fill="white"/>
<path d="M19.1777 58.6621H23.5527V72.8027H19.1777V58.6621Z" fill="white"/>
<path d="M26.7559 58.6621H33.2402C34.5293 58.6621 35.5449 58.8379 36.3457 59.1895C37.1074 59.5215 37.791 60.0293 38.2988 60.6738C38.8262 61.3379 39.1973 62.1191 39.4121 62.9395C39.6465 63.8379 39.7637 64.7559 39.7637 65.6738C39.7637 67.1777 39.5879 68.3496 39.2559 69.1895C38.9434 69.9902 38.4551 70.6934 37.8301 71.2793C37.2832 71.8066 36.5996 72.1973 35.8574 72.4121C35.0176 72.6465 34.1387 72.7832 33.2598 72.8027H26.7754V58.6621H26.7559ZM31.1309 61.8652V69.5801H32.2051C33.123 69.5801 33.7676 69.4824 34.1582 69.2871C34.5684 69.0527 34.9004 68.6816 35.0566 68.2324C35.2715 67.7246 35.3887 66.9043 35.3887 65.7715C35.3887 64.2676 35.1543 63.252 34.6465 62.6855C34.1582 62.1387 33.3574 61.8652 32.2246 61.8652H31.1309Z" fill="white"/>
<path d="M42.0488 58.6621H53.7676V61.6895H46.4238V63.9355H53.2207V66.8262H46.4238V69.6191H53.9629V72.8223H42.0488V58.6621Z" fill="white"/>
<path d="M55.7793 65.7324C55.7793 63.4277 56.4238 61.6309 57.7129 60.3418C59.002 59.0527 60.7988 58.4082 63.084 58.4082C65.4473 58.4082 67.2441 59.0332 68.5332 60.3027C69.8027 61.5723 70.4473 63.3301 70.4473 65.6152C70.4473 67.2754 70.1738 68.623 69.6074 69.6777C69.0606 70.7129 68.2207 71.5723 67.1856 72.1387C66.1309 72.7246 64.8223 73.0176 63.2598 73.0176C61.6582 73.0176 60.3496 72.7637 59.2949 72.2559C58.2207 71.7285 57.3418 70.8887 56.7559 69.8535C56.1113 68.7598 55.7793 67.3926 55.7793 65.7324ZM60.1543 65.7715C60.1543 67.1973 60.4277 68.2324 60.9551 68.8574C61.4824 69.4824 62.2051 69.7949 63.123 69.7949C64.0605 69.7949 64.7832 69.4824 65.3106 68.877C65.8184 68.2715 66.0918 67.1777 66.0918 65.5957C66.0918 64.2676 65.8184 63.291 65.291 62.6855C64.7637 62.0801 64.0215 61.7676 63.1035 61.7676C62.2832 61.7285 61.502 62.0801 60.9746 62.7051C60.4277 63.291 60.1543 64.3262 60.1543 65.7715Z" fill="white"/>
</svg>
