<svg width="65" height="65" viewBox="0 0 65 65" fill="none" xmlns="http://www.w3.org/2000/svg">
<path d="M14.5322 8.51959L24.584 18.5714H7.17328C7.52857 16.4372 8.3794 14.4161 9.65743 12.6704C10.9355 10.9247 12.6051 9.50302 14.5322 8.51959ZM28.0429 6.96423H20.8929C20.4519 6.96423 20.0108 6.98745 19.5697 7.01066L31.1304 18.5714H39.6501L28.0429 6.96423ZM44.1072 6.96423H34.6358L46.2429 18.5714H57.8269C57.283 15.3262 55.606 12.379 53.094 10.2538C50.582 8.12851 47.3977 6.96293 44.1072 6.96423ZM28.9759 45.5603L40.5831 39.1764C40.9475 38.9764 41.2516 38.6821 41.4633 38.3244C41.6751 37.9666 41.7868 37.5585 41.7868 37.1428C41.7868 36.7271 41.6751 36.319 41.4633 35.9612C41.2516 35.6035 40.9475 35.3092 40.5831 35.1092L28.9759 28.7253C28.6225 28.5309 28.2245 28.432 27.8212 28.4383C27.4179 28.4445 27.0231 28.5558 26.6759 28.761C26.3287 28.9663 26.0409 29.2585 25.841 29.6088C25.6411 29.9591 25.5359 30.3555 25.5358 30.7589V43.5267C25.5359 43.9301 25.6411 44.3265 25.841 44.6768C26.0409 45.0271 26.3287 45.3193 26.6759 45.5246C27.0231 45.7299 27.4179 45.8411 27.8212 45.8474C28.2245 45.8536 28.6225 45.7547 28.9759 45.5603ZM58.0358 23.2142V44.1071C58.0328 47.8003 56.5644 51.3414 53.953 53.9528C51.3415 56.5643 47.8004 58.0327 44.1072 58.0357H20.8929C17.1997 58.0327 13.6587 56.5643 11.0472 53.9528C8.43572 51.3414 6.96731 47.8003 6.96436 44.1071V23.2142H58.0358Z" fill="#FDFDFD"/>
</svg>
