<svg width="34" height="34" viewBox="0 0 34 34" fill="none" xmlns="http://www.w3.org/2000/svg">
<g clip-path="url(#clip0_2072_3859)">
<path d="M10.2753 26.1995L11.3009 26.7988C13.0306 27.8075 14.9978 28.3371 17.0002 28.333C19.2417 28.333 21.4329 27.6683 23.2966 26.423C25.1604 25.1777 26.613 23.4076 27.4708 21.3368C28.3286 19.2659 28.553 16.9871 28.1158 14.7887C27.6785 12.5902 26.5991 10.5708 25.0141 8.9858C23.4291 7.4008 21.4097 6.32141 19.2112 5.88411C17.0128 5.44681 14.734 5.67125 12.6631 6.52904C10.5922 7.38683 8.82218 8.83946 7.57686 10.7032C6.33154 12.567 5.66685 14.7582 5.66685 16.9997C5.66685 19.034 6.20093 20.9848 7.20252 22.7003L7.80035 23.726L6.87527 27.1274L10.2753 26.1995ZM2.83918 31.1663L4.75452 24.1283C3.49246 21.9649 2.8294 19.5043 2.83352 16.9997C2.83352 9.17543 9.17593 2.83301 17.0002 2.83301C24.8244 2.83301 31.1668 9.17543 31.1668 16.9997C31.1668 24.8239 24.8244 31.1663 17.0002 31.1663C14.4966 31.1704 12.0371 30.5078 9.87435 29.2468L2.83918 31.1663ZM11.8874 10.3527C12.0773 10.3385 12.2685 10.3385 12.4583 10.347C12.5348 10.3527 12.6113 10.3612 12.6878 10.3697C12.9131 10.3952 13.161 10.5326 13.2446 10.7224C13.6668 11.6801 14.0776 12.6448 14.4743 13.6124C14.5621 13.8278 14.5097 14.104 14.3425 14.3732C14.2275 14.5552 14.1032 14.7311 13.9699 14.9002C13.8098 15.1056 13.4656 15.4824 13.4656 15.4824C13.4656 15.4824 13.3253 15.6496 13.3792 15.8578C13.399 15.9372 13.4642 16.0519 13.5237 16.1483L13.6073 16.2828C13.9699 16.8878 14.4573 17.5012 15.0523 18.0792C15.2223 18.2435 15.388 18.4121 15.5665 18.5693C16.2295 19.1544 16.9803 19.6318 17.7907 19.986L17.7978 19.9888C17.9182 20.0413 17.9791 20.0696 18.1548 20.1447C18.2426 20.1815 18.3333 20.2141 18.4253 20.2382C18.5205 20.2624 18.6207 20.2578 18.7133 20.2251C18.8058 20.1923 18.8866 20.1327 18.9453 20.054C19.9709 18.8116 20.0644 18.7308 20.0729 18.7308V18.7337C20.1442 18.6672 20.2288 18.6168 20.3212 18.5857C20.4136 18.5547 20.5115 18.5438 20.6084 18.5538C20.6934 18.5594 20.7799 18.575 20.8592 18.6104C21.6114 18.9547 22.8425 19.4916 22.8425 19.4916L23.667 19.8613C23.8058 19.9279 23.9319 20.0852 23.9362 20.2368C23.9418 20.3317 23.9503 20.4847 23.9178 20.7652C23.8724 21.1321 23.7619 21.5727 23.6514 21.8036C23.5758 21.9612 23.4753 22.1056 23.3539 22.2314C23.211 22.3815 23.0545 22.5181 22.8864 22.6394C22.8283 22.6831 22.7693 22.7257 22.7094 22.7669C22.5331 22.8787 22.3521 22.9827 22.1668 23.0786C21.802 23.2723 21.3992 23.3836 20.9867 23.4044C20.7246 23.4186 20.4625 23.4384 20.199 23.4243C20.1877 23.4243 19.3943 23.301 19.3943 23.301C17.3802 22.7712 15.5175 21.7787 13.9543 20.4025C13.6342 20.1206 13.3381 19.8174 13.0349 19.5157C11.7741 18.2619 10.8221 16.909 10.2441 15.6312C9.94826 15.004 9.78845 14.3213 9.77518 13.628C9.76934 12.7679 10.0505 11.9304 10.5742 11.248C10.6776 11.1148 10.7753 10.976 10.9439 10.8159C11.1238 10.6459 11.2372 10.5553 11.3604 10.4929C11.5243 10.4108 11.7031 10.3626 11.886 10.3513L11.8874 10.3527Z" fill="#FDFDFD"/>
</g>
<defs>
<clipPath id="clip0_2072_3859">
<rect width="34" height="34" fill="white"/>
</clipPath>
</defs>
</svg>
